Coordinates
version=1
nRows=14
nColumns=36
inDegrees=yes

Units are S.I. units (second, meters, Newtons, ...)
If the header above contains a line with 'inDegrees', this indicates whether rotational values are in degrees (yes) or radians (no).

endheader
time	pelvis_tilt	pelvis_list	pelvis_rotation	pelvis_tx	pelvis_ty	pelvis_tz	hip_flexion_r	hip_adduction_r	hip_rotation_r	knee_angle_r	knee_angle_r_beta	ankle_angle_r	subtalar_angle_r	mtp_angle_r	hip_flexion_l	hip_adduction_l	hip_rotation_l	knee_angle_l	knee_angle_l_beta	ankle_angle_l	subtalar_angle_l	mtp_angle_l	lumbar_extension	lumbar_bending	lumbar_rotation	arm_flex_r	arm_add_r	arm_rot_r	elbow_flex_r	pro_sup_r	arm_flex_l	arm_add_l	arm_rot_l	elbow_flex_l	pro_sup_l
      5.00000000	     -2.69151470	     13.86027126	     -0.30307921	      0.96101264	      0.94396701	     -0.17367350	      6.09087884	     -7.63268429	     -1.33618554	     14.23157730	      0.24838788	     17.67865205	      4.91376233	     -7.49999987	     43.38314854	      3.98345581	     -4.55785916	     21.14227215	      0.36900226	     13.98823829	      2.77244916	     -7.49999987	    -16.85340474	     -7.84853244	     -3.86576932	     45.28118388	     -4.08894260	     65.95815932	    128.47641887	    102.77494109	     38.53392610	     -2.21142371	     59.70909225	    126.27617346	    107.45141309
      5.01666670	     -2.88803043	     13.99352424	     -0.33273391	      0.96068000	      0.94408580	     -0.17362319	      6.10071000	     -7.74620211	     -1.26611980	     13.81828038	      0.24117449	     17.91852866	      4.75173597	     -7.49999987	     42.97361147	      4.17785105	     -4.44180682	     21.30703411	      0.37187790	     14.31808985	      2.75754283	     -7.49999987	    -16.43209329	     -8.20883431	     -3.89329971	     45.46657013	     -4.09603793	     65.85125599	    128.68474158	    102.80273252	     38.78576605	     -2.35485976	     59.51693598	    126.48051067	    107.45052130
      5.03333330	     -2.50875883	     14.30882482	     -0.53384024	      0.96107644	      0.94766183	     -0.17282626	      5.33669123	     -8.07324291	     -1.00881610	     13.12249532	      0.22903075	     17.85723155	      4.43303025	     -7.49999987	     41.63914581	      4.56799529	     -4.58276016	     20.71542401	      0.36155235	     14.19019552	      2.98290369	     -7.49999987	    -16.82367626	     -8.69836768	     -4.07815947	     45.68473922	     -4.37607157	     65.47882610	    128.55147329	    102.24793894	     38.88457859	     -2.87731843	     58.76183509	    126.43385877	    107.94578463
      5.05000000	     -2.48774540	     14.45589439	     -0.64616745	      0.96094392	      0.94758104	     -0.17282387	      5.05283147	     -8.24284141	     -0.87947371	     12.55929561	      0.21920106	     17.77454031	      4.29599219	     -7.49999987	     40.67602456	      4.85497423	     -4.72677258	     20.07131783	      0.35031058	     14.00371818	      3.30180143	     -7.49999987	    -16.74054723	     -9.05976153	     -4.18406097	     45.73472285	     -4.30705644	     65.40786639	    128.41536036	    102.40545498	     39.00951169	     -3.09298717	     58.44249284	    126.12658589	    107.78009688
      5.06666670	     -2.58235289	     14.41711829	     -0.69157373	      0.96123960	      0.94396065	     -0.17263092	      4.94965277	     -8.20843869	     -0.89026553	     12.18823492	      0.21272483	     17.99428072	      4.27767165	     -7.49999987	     40.05514549	      4.84853600	     -4.79521468	     19.91619236	      0.34760313	     14.06591925	      3.31320129	     -7.49999987	    -16.34195079	     -9.16517233	     -4.20256514	     45.76824456	     -4.28461582	     65.37536288	    128.67977011	    102.57234686	     39.06424181	     -3.11935690	     58.37710877	    126.35775442	    107.91455882
      5.08333330	     -2.07398575	     14.55916910	     -1.04758057	      0.96106265	      0.94797519	     -0.17270774	      4.14672385	     -8.38122646	     -0.71063006	     11.57377248	      0.20200044	     17.76936603	      3.99695542	     -7.49999987	     38.46547219	      5.03138437	     -5.01268160	     19.20277723	      0.33515169	     13.64977234	      3.63303910	     -7.49999987	    -16.67061196	     -9.62527441	     -4.17152555	     45.60909431	     -4.31925995	     65.01271389	    128.38080633	    102.65416587	     38.76255941	     -3.54314327	     57.97685927	    126.10651366	    107.65309449
      5.10000000	     -1.71222107	     14.50386785	     -1.28093251	      0.96096641	      0.94844734	     -0.17265664	      3.56871105	     -8.35895023	     -0.64197413	     11.16079210	      0.19479257	     17.73664768	      3.85188778	     -7.49999987	     37.07516146	      5.05229822	     -5.22218855	     18.46199639	      0.32222262	     13.37083957	      4.00726760	     -7.49999987	    -16.98954454	     -9.73069050	     -4.14401572	     45.40574278	     -4.63138811	     65.29634592	    128.91237828	    102.79904119	     38.32115343	     -3.43602985	     58.44928349	    126.15120276	    107.38092334
      5.11666670	     -1.51859352	     14.42784748	     -1.40602294	      0.96096730	      0.94562612	     -0.17252606	      3.25766957	     -8.28218781	     -0.65365493	     10.83828348	      0.18916373	     17.69031411	      3.81509725	     -7.49999987	     35.93952938	      5.13673253	     -5.36501398	     17.86993550	      0.31188921	     13.18503072	      4.75830755	     -7.49999987	    -17.08323928	     -9.85479729	     -4.22288866	     45.02599713	     -4.54434494	     64.78203264	    128.67585889	    102.92137679	     38.48724098	     -3.46323262	     58.48607513	    126.21426677	    106.23840304
      5.13333330	     -1.53715138	     14.27643232	     -1.49871414	      0.96108965	      0.94567685	     -0.17257654	      3.21183916	     -8.11240003	     -0.64888590	     10.63820280	      0.18567167	     17.83806278	      3.71813285	     -7.49999987	     35.14186141	      4.97144160	     -5.35882417	     17.84159135	      0.31139451	     13.01523244	      4.85007085	     -7.49999987	    -16.87217344	     -9.72570063	     -4.36881817	     44.54858468	     -4.64540986	     64.92494626	    128.79097218	    102.93562275	     38.19440847	     -3.39425425	     58.60173198	    126.29217049	    106.23568601
      5.15000000	     -1.66453923	     14.20163856	     -1.44547743	      0.96102215	      0.94527791	     -0.17298488	      3.27867049	     -8.05814398	     -0.74577426	     10.48722715	      0.18303664	     17.86912006	      3.63624409	     -7.49999987	     34.39010138	      4.78805924	     -5.47263710	     17.91907158	      0.31274680	     12.87233495	      4.82609212	     -7.49999987	    -16.61217431	     -9.74079970	     -4.36322171	     44.49561642	     -4.62707998	     64.90924313	    128.77228628	    102.93627179	     38.16974976	     -3.31076541	     58.71319446	    126.43479384	    106.23777150
      5.16666670	     -1.20363621	     14.11905112	     -1.47514572	      0.95643209	      0.94295515	     -0.17745194	      2.81617159	     -8.03433924	     -0.76295725	     10.28257995	      0.17946488	     17.54962742	      3.15276429	     -7.49999987	     33.19417423	      4.69837912	     -5.88895599	     18.10283118	      0.31595401	     12.46402245	      4.76606551	     -7.49999987	    -17.28116843	     -9.47868672	     -4.45636150	     44.68912832	     -5.00706811	     64.68432782	    129.37864414	    101.39050398	     39.07442062	     -2.94455024	     60.21787051	    127.79807918	    104.83560036
      5.18333330	     -1.30526373	     13.97674235	     -1.39994752	      0.96079683	      0.94334445	     -0.17354181	      2.85985548	     -7.92781278	     -0.89156462	     10.21275500	      0.17824620	     17.72103767	      3.04169888	     -7.49999987	     32.40858496	      4.45648481	     -6.11979040	     18.22141973	      0.31802377	     12.45719305	      4.57526006	     -7.49999987	    -16.95912352	     -9.43207267	     -4.51785776	     44.53429674	     -5.07993593	     64.70544436	    129.46276942	    101.41071669	     38.90281250	     -2.95330164	     60.31683790	    127.90256557	    104.85803327
      5.20000000	     -1.13538001	     13.79658405	     -1.35489644	      0.96105472	      0.94091427	     -0.17421460	      2.58923178	     -7.73692336	     -0.89401015	     10.04684259	      0.17535048	     18.03082988	      3.06882190	     -7.49999987	     31.38873715	      4.29416299	     -6.10763612	     18.35431595	      0.32034325	     11.97827717	      3.83373993	     -7.49999987	    -16.99774733	     -9.30652534	     -4.60006389	     44.15631600	     -5.34876009	     64.30778603	    130.18230175	    101.01785058	     38.95230663	     -3.08507821	     60.56447785	    128.61368121	    104.78603887
      5.21666670	     -1.07621747	     13.62072163	     -1.36308142	      0.96074940	      0.94452176	     -0.17463858	      2.20953837	     -7.55668514	     -0.72332536	      9.39135038	      0.16390999	     17.76163055	      2.84645044	     -7.49999987	     30.17353978	      4.13252614	     -6.26776761	     17.94982333	      0.31328352	     11.33950881	      3.66227220	     -7.49999987	    -16.81533261	     -9.07865597	     -4.34290016	     43.95146349	     -5.64323684	     64.63645490	    130.35784195	    101.21284777	     38.54595062	     -2.90690259	     60.87526478	    128.72450435	    104.94512060
